<?xml version="1.0" encoding="utf-8"?>
<!-- Generator: Adobe Illustrator 23.0.6, SVG Export Plug-In . SVG Version: 6.00 Build 0)  -->
<svg version="1.1" id="Capa_1" xmlns="http://www.w3.org/2000/svg" xmlns:xlink="http://www.w3.org/1999/xlink" x="0px" y="0px"
	 viewBox="0 0 300 90" style="enable-background:new 0 0 300 90;" xml:space="preserve" width="300px" height="90px">
<style type="text/css">
	.st0{fill:#00C0F3;}
	.st1{fill:#262424;}
	.st2{fill:#626365;}
</style>
<g>
	<g>
		<g>
			<rect x="4" y="68.4" class="st0" width="101.9" height="1.8"/>
		</g>
		<g>
			<path class="st1" d="M23.6,39.3H11.3v10.2H25v3.1H7.4V24.1h16.9v3.1h-13v8.9h12.3C23.6,36.1,23.6,39.3,23.6,39.3z"/>
			<path class="st1" d="M46.2,39.3H33.9v10.2h13.7v3.1H30.1V24.1H47v3.1H34v8.9h12.3L46.2,39.3L46.2,39.3z"/>
			<path class="st1" d="M57.7,43.5l-3.2,9.1h-4l10.7-28.4h4.7l10.8,28.4h-4.1L69,43.5H57.7z M68.2,40.6L64.9,32
				c-0.7-1.8-1.1-3.3-1.6-4.7h-0.1c-0.5,1.5-0.9,3-1.5,4.7l-3.2,8.6H68.2z"/>
			<path class="st1" d="M86,43.5l-3.2,9.1h-4l10.7-28.4h4.7L105,52.6h-4.1l-3.5-9.1H86z M96.5,40.6L93.2,32
				c-0.7-1.8-1.1-3.3-1.6-4.7h-0.1c-0.5,1.5-0.9,3-1.5,4.7l-3.2,8.6H96.5z"/>
		</g>
	</g>
	<g>
		<path class="st2" d="M131.1,18.4H126v4.7h5.6v1.4h-7.3v-13h7v1.4h-5.4V17h5.1v1.4H131.1z"/>
		<path class="st2" d="M133.6,22.8c0.5,0.3,1.4,0.7,2.2,0.7c1.2,0,1.8-0.6,1.8-1.4s-0.5-1.3-1.7-1.7c-1.7-0.6-2.5-1.5-2.5-2.6
			c0-1.5,1.2-2.7,3.2-2.7c0.9,0,1.8,0.3,2.3,0.6l-0.4,1.2c-0.4-0.2-1-0.5-1.9-0.5c-1,0-1.6,0.6-1.6,1.3c0,0.8,0.6,1.1,1.8,1.6
			c1.6,0.6,2.5,1.4,2.5,2.8c0,1.6-1.3,2.8-3.5,2.8c-1,0-2-0.3-2.6-0.6L133.6,22.8z"/>
		<path class="st2" d="M148.2,24.2c-0.4,0.2-1.4,0.5-2.7,0.5c-2.8,0-4.7-1.9-4.7-4.8s2-5,5-5c1,0,1.9,0.3,2.4,0.5l-0.4,1.3
			c-0.4-0.2-1-0.4-2-0.4c-2.1,0-3.3,1.6-3.3,3.5c0,2.2,1.4,3.5,3.2,3.5c1,0,1.6-0.3,2.1-0.5L148.2,24.2z"/>
		<path class="st2" d="M158,22c0,1,0,1.8,0.1,2.6h-1.5l-0.1-1.5l0,0c-0.4,0.8-1.4,1.7-3.1,1.7c-1.5,0-3.2-0.8-3.2-4.1v-5.5h1.7v5.2
			c0,1.8,0.5,3,2.1,3c1.1,0,1.9-0.8,2.2-1.5c0.1-0.3,0.2-0.6,0.2-0.9v-5.7h1.7L158,22L158,22z"/>
		<path class="st2" d="M161.8,20.2c0,2.3,1.5,3.2,3.2,3.2c1.2,0,2-0.2,2.6-0.5l0.3,1.2c-0.6,0.3-1.6,0.6-3.1,0.6
			c-2.9,0-4.6-1.9-4.6-4.7s1.7-5,4.4-5c3.1,0,3.9,2.7,3.9,4.4c0,0.3,0,0.6-0.1,0.8C168.4,20.2,161.8,20.2,161.8,20.2z M166.7,18.9
			c0-1.1-0.4-2.8-2.4-2.8c-1.7,0-2.5,1.6-2.6,2.8H166.7z"/>
		<path class="st2" d="M170.5,10.8h1.7v13.7h-1.7V10.8z"/>
		<path class="st2" d="M180.2,24.5l-0.1-1.2H180c-0.5,0.7-1.5,1.4-2.9,1.4c-1.9,0-2.9-1.3-2.9-2.7c0-2.3,2-3.5,5.6-3.5v-0.2
			c0-0.8-0.2-2.2-2.1-2.2c-0.9,0-1.8,0.3-2.4,0.7l-0.4-1.1c0.8-0.5,1.9-0.8,3.1-0.8c2.9,0,3.6,2,3.6,3.8v3.5c0,0.8,0,1.6,0.2,2.2
			h-1.6V24.5z M180,19.7c-1.9,0-4,0.3-4,2.1c0,1.1,0.7,1.6,1.6,1.6c1.2,0,2-0.8,2.3-1.6c0.1-0.2,0.1-0.4,0.1-0.5L180,19.7L180,19.7z
			"/>
		<path class="st2" d="M196.5,10.8v11.3c0,0.8,0,1.8,0.1,2.4h-1.5l-0.1-1.6l0,0c-0.5,1-1.7,1.8-3.2,1.8c-2.3,0-4-1.9-4-4.8
			c0-3.1,1.9-5,4.2-5c1.4,0,2.4,0.7,2.8,1.4l0,0v-5.6h1.7V10.8z M194.8,19c0-0.2,0-0.5-0.1-0.7c-0.3-1.1-1.2-2-2.5-2
			c-1.8,0-2.8,1.5-2.8,3.6c0,1.9,0.9,3.5,2.8,3.5c1.1,0,2.2-0.8,2.5-2c0.1-0.2,0.1-0.5,0.1-0.7V19z"/>
		<path class="st2" d="M200.3,20.2c0,2.3,1.5,3.2,3.2,3.2c1.2,0,2-0.2,2.6-0.5l0.3,1.2c-0.6,0.3-1.6,0.6-3.1,0.6
			c-2.9,0-4.6-1.9-4.6-4.7s1.7-5,4.4-5c3.1,0,3.9,2.7,3.9,4.4c0,0.3,0,0.6-0.1,0.8C206.9,20.2,200.3,20.2,200.3,20.2z M205.3,18.9
			c0-1.1-0.4-2.8-2.4-2.8c-1.7,0-2.5,1.6-2.6,2.8H205.3z"/>
	</g>
	<g>
		<path class="st2" d="M132,41.9h-4.8V45h5.4v2.4h-8.3v-13h8v2.4h-5.1v2.7h4.8L132,41.9L132,41.9z"/>
		<path class="st2" d="M141.4,47.1c-0.5,0.2-1.5,0.4-2.6,0.4c-3.1,0-5-1.9-5-4.8c0-2.8,1.9-5,5.4-5c0.8,0,1.6,0.1,2.2,0.4l-0.5,2.2
			c-0.3-0.2-0.9-0.3-1.6-0.3c-1.5,0-2.6,1.1-2.5,2.6c0,1.7,1.2,2.6,2.6,2.6c0.7,0,1.2-0.1,1.7-0.3L141.4,47.1z"/>
		<path class="st2" d="M152.2,42.5c0,3.5-2.5,5-5,5c-2.8,0-4.9-1.8-4.9-4.9c0-3.1,2-5,5-5C150.3,37.7,152.2,39.7,152.2,42.5z
			 M145.4,42.6c0,1.6,0.7,2.8,1.9,2.8c1.1,0,1.9-1.1,1.9-2.8c0-1.4-0.5-2.8-1.9-2.8S145.4,41.2,145.4,42.6z"/>
		<path class="st2" d="M154,40.9c0-1.2,0-2.2-0.1-3h2.6l0.1,1.3h0.1c0.4-0.6,1.4-1.5,2.9-1.5c1.9,0,3.4,1.3,3.4,4.1v5.6h-2.9v-5.2
			c0-1.2-0.4-2-1.5-2c-0.8,0-1.3,0.6-1.5,1.1c-0.1,0.2-0.1,0.5-0.1,0.7v5.5h-3V40.9z"/>
		<path class="st2" d="M174.7,42.5c0,3.5-2.5,5-5,5c-2.8,0-4.9-1.8-4.9-4.9c0-3.1,2-5,5-5C172.8,37.7,174.7,39.7,174.7,42.5z
			 M167.8,42.6c0,1.6,0.7,2.8,1.9,2.8c1.1,0,1.9-1.1,1.9-2.8c0-1.4-0.5-2.8-1.9-2.8C168.4,39.8,167.8,41.2,167.8,42.6z"/>
		<path class="st2" d="M176.5,40.9c0-1.2,0-2.2-0.1-3h2.5l0.1,1.3h0.1c0.4-0.6,1.2-1.5,2.9-1.5c1.2,0,2.2,0.6,2.6,1.6l0,0
			c0.3-0.5,0.8-0.9,1.2-1.1c0.5-0.3,1.1-0.5,1.8-0.5c1.8,0,3.2,1.3,3.2,4.1v5.6h-2.9v-5.1c0-1.4-0.4-2.2-1.4-2.2
			c-0.7,0-1.2,0.5-1.4,1c-0.1,0.2-0.1,0.5-0.1,0.8v5.5h-2.9v-5.3c0-1.2-0.4-2-1.4-2c-0.8,0-1.2,0.6-1.4,1.1
			c-0.1,0.2-0.1,0.5-0.1,0.7v5.5h-2.9v-6.5H176.5z"/>
		<path class="st2" d="M193.1,47.4v-9.5h2.9v9.5H193.1z M197.7,33.8l-2.4,2.9h-2l1.7-2.9H197.7z"/>
		<path class="st2" d="M203.8,47.4l-0.2-0.9h-0.1c-0.6,0.8-1.6,1.2-2.7,1.2c-1.9,0-3.1-1.4-3.1-2.9c0-2.5,2.2-3.6,5.5-3.6v-0.1
			c0-0.5-0.3-1.2-1.7-1.2c-1,0-2,0.3-2.6,0.7l-0.5-1.9c0.7-0.4,2-0.8,3.7-0.8c3.2,0,4.2,1.9,4.2,4.1v3.3c0,0.9,0,1.8,0.1,2.3h-2.6
			V47.4z M203.4,42.9c-1.5,0-2.7,0.3-2.7,1.5c0,0.8,0.5,1.1,1.2,1.1s1.3-0.5,1.5-1.1c0-0.2,0.1-0.3,0.1-0.5v-1H203.4z"/>
		<path class="st2" d="M215.6,44l-0.9,3.3h-3.1l4-13h3.9l4,13h-3.2l-1-3.3H215.6z M219,41.8l-0.8-2.8c-0.2-0.8-0.5-1.7-0.7-2.5l0,0
			c-0.2,0.8-0.4,1.8-0.6,2.5l-0.8,2.8H219z"/>
		<path class="st2" d="M234,37.9c0,0.6-0.1,1.4-0.1,2.8V46c0,1.8-0.4,3.3-1.4,4.3c-1,0.9-2.5,1.2-3.8,1.2c-1.2,0-2.6-0.3-3.4-0.7
			l0.6-2.2c0.6,0.3,1.6,0.7,2.7,0.7c1.4,0,2.5-0.8,2.5-2.5V46l0,0c-0.6,0.8-1.5,1.2-2.5,1.2c-2.3,0-4-1.9-4-4.6c0-3,2-5,4.3-5
			c1.3,0,2.1,0.6,2.6,1.3l0,0l0.1-1.1L234,37.9L234,37.9z M231,41.8c0-0.2,0-0.4-0.1-0.5c-0.2-0.8-0.8-1.3-1.6-1.3
			c-1.1,0-1.9,1-1.9,2.7c0,1.4,0.7,2.5,1.9,2.5c0.8,0,1.4-0.5,1.5-1.2c0.1-0.2,0.1-0.5,0.1-0.8v-1.4H231z"/>
		<path class="st2" d="M236.2,41c0-1.4,0-2.3-0.1-3.1h2.5l0.1,1.7h0.1c0.5-1.4,1.6-2,2.5-2c0.3,0,0.4,0,0.6,0v2.8
			c-0.2,0-0.5-0.1-0.8-0.1c-1.1,0-1.8,0.6-2,1.5c0,0.2-0.1,0.4-0.1,0.7v4.8h-2.9L236.2,41L236.2,41z"/>
		<path class="st2" d="M243.6,47.4v-9.5h2.9v9.5H243.6z M248.2,33.8l-2.4,2.9h-2l1.7-2.9H248.2z"/>
		<path class="st2" d="M256,47.1c-0.5,0.2-1.5,0.4-2.6,0.4c-3.1,0-5-1.9-5-4.8c0-2.8,1.9-5,5.4-5c0.8,0,1.6,0.1,2.2,0.4l-0.5,2.2
			c-0.3-0.2-0.9-0.3-1.6-0.3c-1.5,0-2.5,1.1-2.5,2.6c0,1.7,1.2,2.6,2.6,2.6c0.7,0,1.2-0.1,1.7-0.3L256,47.1z"/>
		<path class="st2" d="M266.7,42.5c0,3.5-2.5,5-5,5c-2.8,0-4.9-1.8-4.9-4.9c0-3.1,2-5,5-5C264.8,37.7,266.7,39.7,266.7,42.5z
			 M259.9,42.6c0,1.6,0.7,2.8,1.9,2.8c1.1,0,1.9-1.1,1.9-2.8c0-1.4-0.5-2.8-1.9-2.8S259.9,41.2,259.9,42.6z"/>
		<path class="st2" d="M268.5,33.6h2.9v13.7h-2.9V33.6z"/>
		<path class="st2" d="M279.2,47.4l-0.2-0.9l0,0c-0.6,0.8-1.6,1.2-2.7,1.2c-1.9,0-3.1-1.4-3.1-2.9c0-2.5,2.2-3.6,5.5-3.6v-0.1
			c0-0.5-0.3-1.2-1.7-1.2c-1,0-2,0.3-2.6,0.7l-0.5-1.9c0.7-0.4,2-0.8,3.7-0.8c3.2,0,4.2,1.9,4.2,4.1v3.3c0,0.9,0,1.8,0.1,2.3h-2.7
			V47.4z M278.9,42.9c-1.5,0-2.7,0.3-2.7,1.5c0,0.8,0.5,1.1,1.2,1.1s1.3-0.5,1.5-1.1c0-0.2,0.1-0.3,0.1-0.5v-1H278.9z"/>
		<path class="st2" d="M290.2,37.9l1.4,4.6c0.2,0.6,0.3,1.3,0.5,1.8h0.1c0.1-0.5,0.3-1.2,0.4-1.8l1.2-4.6h3.1l-2.2,6.2
			c-1.4,3.8-2.3,5.3-3.3,6.2s-2.1,1.2-2.8,1.3l-0.6-2.5c0.4-0.1,0.8-0.2,1.3-0.5c0.4-0.2,0.9-0.7,1.2-1.2c0.1-0.1,0.2-0.3,0.2-0.4
			c0-0.1,0-0.3-0.1-0.5l-3.5-8.6H290.2z"/>
	</g>
	<g>
		<path class="st2" d="M127.2,66.9l-0.9,3.3h-3.1l4-13h3.9l4,13H132l-1-3.3H127.2z M130.5,64.7l-0.8-2.8c-0.2-0.8-0.5-1.7-0.7-2.5
			l0,0c-0.2,0.8-0.4,1.8-0.6,2.5l-0.8,2.8H130.5z"/>
		<path class="st2" d="M145.6,60.8c0,0.6-0.1,1.4-0.1,2.8v5.3c0,1.8-0.4,3.3-1.4,4.3c-1,0.9-2.5,1.2-3.8,1.2c-1.2,0-2.6-0.3-3.4-0.7
			l0.6-2.2c0.6,0.3,1.6,0.7,2.7,0.7c1.4,0,2.5-0.8,2.5-2.5v-0.6l0,0c-0.6,0.8-1.5,1.2-2.5,1.2c-2.3,0-4-1.9-4-4.6c0-3,2-5,4.3-5
			c1.3,0,2.1,0.6,2.6,1.3l0,0l0.1-1.1h2.4V60.8z M142.5,64.6c0-0.2,0-0.4-0.1-0.5c-0.2-0.8-0.8-1.3-1.6-1.3c-1.1,0-1.9,1-1.9,2.7
			c0,1.4,0.7,2.5,1.9,2.5c0.8,0,1.4-0.5,1.5-1.2c0.1-0.2,0.1-0.5,0.1-0.8v-1.4H142.5z"/>
		<path class="st2" d="M147.8,63.9c0-1.4,0-2.3-0.1-3.1h2.5l0.1,1.7h0.1c0.5-1.4,1.6-2,2.5-2c0.3,0,0.4,0,0.6,0v2.8
			c-0.2,0-0.5-0.1-0.8-0.1c-1.1,0-1.8,0.6-2,1.5c0,0.2-0.1,0.4-0.1,0.7v4.8h-2.9L147.8,63.9L147.8,63.9z"/>
		<path class="st2" d="M164.4,65.4c0,3.5-2.5,5-5,5c-2.8,0-4.9-1.8-4.9-4.9s2-5,5-5C162.4,60.5,164.4,62.5,164.4,65.4z M157.5,65.5
			c0,1.6,0.7,2.8,1.9,2.8c1.1,0,1.9-1.1,1.9-2.8c0-1.4-0.5-2.8-1.9-2.8C158.1,62.6,157.5,64.1,157.5,65.5z"/>
		<path class="st2" d="M166.2,63.8c0-1.2,0-2.2-0.1-3h2.5l0.1,1.3h0.1c0.4-0.6,1.4-1.5,2.9-1.5c1.9,0,3.4,1.3,3.4,4.1v5.6h-2.9V65
			c0-1.2-0.4-2-1.5-2c-0.8,0-1.3,0.6-1.5,1.1c-0.1,0.2-0.1,0.5-0.1,0.7v5.5h-2.9V63.8z"/>
		<path class="st2" d="M179.8,66.4c0.1,1.2,1.3,1.8,2.7,1.8c1,0,1.8-0.1,2.6-0.4l0.4,2c-1,0.4-2.1,0.6-3.4,0.6c-3.2,0-5-1.9-5-4.8
			c0-2.4,1.5-5,4.8-5c3.1,0,4.2,2.4,4.2,4.7c0,0.5-0.1,0.9-0.1,1.2L179.8,66.4L179.8,66.4z M183.2,64.4c0-0.7-0.3-1.9-1.7-1.9
			c-1.2,0-1.7,1.1-1.8,1.9H183.2z"/>
		<path class="st2" d="M196.8,60.8c0,0.6-0.1,1.4-0.1,2.8v5.3c0,1.8-0.4,3.3-1.4,4.3c-1,0.9-2.5,1.2-3.8,1.2c-1.2,0-2.6-0.3-3.4-0.7
			l0.6-2.2c0.6,0.3,1.6,0.7,2.7,0.7c1.4,0,2.5-0.8,2.5-2.5v-0.6l0,0c-0.6,0.8-1.5,1.2-2.5,1.2c-2.3,0-4-1.9-4-4.6c0-3,2-5,4.3-5
			c1.3,0,2.1,0.6,2.6,1.3l0,0l0.1-1.1h2.4V60.8z M193.7,64.6c0-0.2,0-0.4-0.1-0.5c-0.2-0.8-0.8-1.3-1.6-1.3c-1.1,0-1.9,1-1.9,2.7
			c0,1.4,0.7,2.5,1.9,2.5c0.8,0,1.4-0.5,1.5-1.2c0.1-0.2,0.1-0.5,0.1-0.8v-1.4H193.7z"/>
		<path class="st2" d="M208.4,65.4c0,3.5-2.5,5-5,5c-2.8,0-4.9-1.8-4.9-4.9s2-5,5-5C206.4,60.5,208.4,62.5,208.4,65.4z M201.5,65.5
			c0,1.6,0.7,2.8,1.9,2.8c1.1,0,1.9-1.1,1.9-2.8c0-1.4-0.5-2.8-1.9-2.8C202,62.6,201.5,64.1,201.5,65.5z"/>
		<path class="st2" d="M217.3,70c-0.5,0.2-1.5,0.4-2.6,0.4c-3.1,0-5-1.9-5-4.8c0-2.8,1.9-5,5.4-5c0.8,0,1.6,0.1,2.2,0.4l-0.5,2.2
			c-0.3-0.2-0.9-0.3-1.6-0.3c-1.5,0-2.5,1.1-2.5,2.6c0,1.7,1.2,2.6,2.6,2.6c0.7,0,1.2-0.1,1.7-0.3L217.3,70z"/>
		<path class="st2" d="M222,58.1c0,0.8-0.6,1.5-1.6,1.5c-0.9,0-1.5-0.7-1.5-1.5s0.6-1.5,1.5-1.5C221.4,56.6,222,57.3,222,58.1z
			 M219,70.2v-9.5h2.9v9.5H219z"/>
		<path class="st2" d="M233.6,65.4c0,3.5-2.5,5-5,5c-2.8,0-4.9-1.8-4.9-4.9s2-5,5-5C231.6,60.5,233.6,62.5,233.6,65.4z M226.7,65.5
			c0,1.6,0.7,2.8,1.9,2.8c1.1,0,1.9-1.1,1.9-2.8c0-1.4-0.5-2.8-1.9-2.8C227.3,62.6,226.7,64.1,226.7,65.5z"/>
		<path class="st2" d="M235.4,67.6c0.5,0.3,1.7,0.7,2.5,0.7c0.9,0,1.3-0.3,1.3-0.8s-0.3-0.7-1.4-1.1c-2-0.7-2.7-1.7-2.7-2.8
			c0-1.8,1.5-3.1,3.8-3.1c1.1,0,2.1,0.3,2.7,0.5l-0.5,2c-0.4-0.2-1.2-0.5-2-0.5c-0.7,0-1.1,0.3-1.1,0.8c0,0.4,0.4,0.7,1.5,1.1
			c1.8,0.6,2.5,1.5,2.6,2.9c0,1.8-1.4,3.1-4.1,3.1c-1.2,0-2.3-0.3-3.1-0.7L235.4,67.6z"/>
	</g>
</g>
</svg>
